<svg viewBox="0 0 720 560" xmlns="http://www.w3.org/2000/svg" role="img" aria-labelledby="heroTitle">
  <title id="heroTitle">Ilustración de aprendizaje de IA para estudiantes de física</title>
  <defs>
    <linearGradient id="grad1" x1="0%" y1="0%" x2="100%" y2="100%">
      <stop offset="0%" stop-color="#0d6efd" stop-opacity=".8"/>
      <stop offset="100%" stop-color="#ffc107" stop-opacity=".9"/>
    </linearGradient>
  </defs>
  <rect width="720" height="560" rx="40" fill="#f0f8ff"/>
  <circle cx="150" cy="120" r="70" fill="#0d6efd" opacity=".12"/>
  <path d="M80 420 C140 360 220 360 280 420 S420 520 520 420" fill="#e7f1ff"/>
  <g fill="none" stroke="url(#grad1)" stroke-width="18" stroke-linecap="round">
    <path d="M440 160 L540 240"/>
    <path d="M520 160 L440 240"/>
  </g>
  <rect x="120" y="180" width="280" height="220" rx="30" fill="#fff" stroke="#dee2e6" stroke-width="2"/>
  <circle cx="220" cy="250" r="26" fill="#0d6efd" opacity=".95"/>
  <rect x="180" y="300" width="150" height="20" rx="10" fill="#0d6efd" opacity=".85"/>
  <rect x="180" y="340" width="220" height="18" rx="9" fill="#ffc107" opacity=".8"/>
  <rect x="180" y="380" width="180" height="16" rx="8" fill="#0d6efd" opacity=".7"/>
  <path d="M420 360 C460 320 520 320 560 360" fill="#fff" stroke="#0d6efd" stroke-width="3"/>
  <path d="M430 375 C470 345 520 345 560 375" fill="none" stroke="#ffc107" stroke-width="3"/>
  <path d="M160 120 L260 80 L340 140" stroke="#495057" stroke-width="10" fill="none" stroke-linecap="round"/>
  <circle cx="520" cy="460" r="32" fill="#ffc107" opacity=".7"/>
  <circle cx="520" cy="460" r="16" fill="#0d6efd"/>
</svg>
